# xmcd CD database file
#
# Track frame offsets:
#	150
#	17347
#	28245
#	36876
#	47764
#	58645
#	70317
#	83369
#	102355
#	115949
#	126509
#
# Disc length: 1829 seconds
#
# Revision: 0
# Processed by: cddbd v1.5.2PL0 Copyright (c) Steve Scherf et al.
# Submitted via: CDex 1.51
#
DISCID=8e07230b
DTITLE=Johnny Cash - A Johnny Cash Portrait - His Greatest Hits Volume II
DYEAR=1970
DGENRE=Country
TTITLE0=A Boy Named Sue
TTITLE1=Hey Porter
TTITLE2=Guess Things Happen That Way
TTITLE3=Blistered
TTITLE4=Big River
TTITLE5=Long-legged Guitar Pickin' Man
TTITLE6=Folsom Prison Blues
TTITLE7=Sunday Morning Coming Down
TTITLE8=If I Were A Carpenter
TTITLE9=Frankie's Man, Johnny
TTITLE10=Daddy Sang Bass
EXTD=YEAR: 1970
EXTT0=
EXTT1=
EXTT2=
EXTT3=
EXTT4=
EXTT5=
EXTT6=
EXTT7=
EXTT8=
EXTT9=
EXTT10=
PLAYORDER=
